<svg xmlns="http://www.w3.org/2000/svg" xmlns:xlink="http://www.w3.org/1999/xlink" viewBox="0 0 69 64"><g transform="translate(0.72 0.512)" id="ss9298867856_1"><path d="M 0 63.273 L 0 0 L 67.794 0 L 67.794 63.273 Z" fill="transparent"></path><path d="M 0 0 L 26.679 0 C 30.226 0 33.627 1.492 36.136 4.148 C 38.643 6.804 40.052 10.406 40.052 14.162 C 40.052 17.917 38.643 21.519 36.135 24.174 C 33.626 26.829 30.226 28.321 26.679 28.321 L 0 28.321 Z" fill="#FAFAFA"></path><path d="M 0 34.601 L 28.787 34.601 C 32.334 34.601 35.735 36.093 38.244 38.748 C 40.752 41.404 42.161 45.007 42.161 48.762 C 42.16 52.518 40.751 56.119 38.242 58.775 C 35.734 61.43 32.333 62.921 28.787 62.921 L 0 62.921 Z" fill="#FAFAFA"></path><path d="M 58.153 63.273 C 63.478 63.273 67.795 58.702 67.795 53.063 C 67.795 47.424 63.478 42.853 58.153 42.853 C 52.828 42.853 48.512 47.424 48.512 53.063 C 48.512 58.702 52.828 63.273 58.153 63.273 Z" fill="#FAFAFA"></path></g></svg>